<svg width="375" height="812" viewBox="0 0 375 812" fill="none" xmlns="http://www.w3.org/2000/svg">
<g clip-path="url(#clip0_298_1556)">
<rect width="375" height="812" fill="url(#paint0_linear_298_1556)"/>
<circle opacity="0.0416667" cx="395.5" cy="266.5" r="231.998" stroke="#EF7925" stroke-opacity="0.2" stroke-width="5"/>
<circle opacity="0.0833333" cx="395.5" cy="266.5" r="222.996" stroke="#EF7925" stroke-opacity="0.2" stroke-width="5"/>
<circle opacity="0.125" cx="395.5" cy="266.5" r="213.994" stroke="#EF7925" stroke-opacity="0.2" stroke-width="5"/>
<circle opacity="0.166667" cx="395.5" cy="266.5" r="204.993" stroke="#EF7925" stroke-opacity="0.2" stroke-width="5"/>
<circle opacity="0.208333" cx="395.5" cy="266.499" r="195.991" stroke="#EF7925" stroke-opacity="0.2" stroke-width="5"/>
<circle opacity="0.25" cx="395.5" cy="266.501" r="186.989" stroke="#EF7925" stroke-opacity="0.2" stroke-width="5"/>
<circle opacity="0.291667" cx="395.5" cy="266.501" r="177.987" stroke="#EF7925" stroke-opacity="0.2" stroke-width="5"/>
<circle opacity="0.333333" cx="395.5" cy="266.501" r="168.985" stroke="#EF7925" stroke-opacity="0.2" stroke-width="5"/>
<circle opacity="0.375" cx="395.5" cy="266.5" r="159.983" stroke="#EF7925" stroke-opacity="0.2" stroke-width="5"/>
<circle opacity="0.416667" cx="395.5" cy="266.5" r="150.982" stroke="#EF7925" stroke-opacity="0.2" stroke-width="5"/>
<circle opacity="0.458333" cx="395.5" cy="266.5" r="141.98" stroke="#EF7925" stroke-opacity="0.2" stroke-width="5"/>
<circle opacity="0.5" cx="395.5" cy="266.499" r="132.978" stroke="#EF7925" stroke-opacity="0.2" stroke-width="5"/>
<circle opacity="0.541667" cx="395.5" cy="266.5" r="123.976" stroke="#EF7925" stroke-opacity="0.2" stroke-width="5"/>
<circle opacity="0.583333" cx="395.5" cy="266.5" r="114.974" stroke="#EF7925" stroke-opacity="0.2" stroke-width="5"/>
<circle opacity="0.625" cx="395.5" cy="266.5" r="105.972" stroke="#EF7925" stroke-opacity="0.2" stroke-width="5"/>
<circle opacity="0.666667" cx="395.5" cy="266.5" r="96.9704" stroke="#EF7925" stroke-opacity="0.2" stroke-width="5"/>
<circle opacity="0.708333" cx="395.5" cy="266.5" r="87.9686" stroke="#EF7925" stroke-opacity="0.2" stroke-width="5"/>
<circle opacity="0.75" cx="395.5" cy="266.499" r="78.9667" stroke="#EF7925" stroke-opacity="0.2" stroke-width="5"/>
<circle opacity="0.791667" cx="395.5" cy="266.501" r="69.9649" stroke="#EF7925" stroke-opacity="0.2" stroke-width="5"/>
<circle opacity="0.833333" cx="395.5" cy="266.501" r="60.963" stroke="#EF7925" stroke-opacity="0.2" stroke-width="5"/>
<circle opacity="0.875" cx="395.5" cy="266.5" r="51.9612" stroke="#EF7925" stroke-opacity="0.2" stroke-width="5"/>
<circle opacity="0.916667" cx="395.5" cy="266.5" r="42.9593" stroke="#EF7925" stroke-opacity="0.2" stroke-width="5"/>
<circle opacity="0.958333" cx="395.5" cy="266.499" r="33.9575" stroke="#EF7925" stroke-opacity="0.2" stroke-width="5"/>
<circle cx="395.5" cy="266.501" r="24.9556" stroke="#EF7925" stroke-opacity="0.2" stroke-width="5"/>
<path d="M156.673 751.764C159.374 753.433 163 752.678 164.748 750.08C166.331 747.518 165.386 743.938 162.642 742.106C159.939 740.436 156.313 741.191 154.566 743.789C152.982 746.351 153.928 749.932 156.673 751.764Z" fill="#FFF5E5" stroke="#FFF5E5"/>
<path d="M138.111 738.117C141.206 737.472 143.06 734.471 142.252 731.414C141.445 728.358 138.282 726.404 135.187 727.049C132.092 727.694 130.238 730.694 131.046 733.751C131.853 736.807 135.016 738.762 138.111 738.117Z" fill="#FFF5E5" stroke="#FFF5E5"/>
<path d="M110.538 723.257C113.24 724.926 116.865 724.17 118.613 721.574C120.197 719.011 119.251 715.43 116.506 713.598C113.805 711.929 110.179 712.685 108.431 715.282C106.847 717.844 107.793 721.425 110.538 723.257Z" fill="#FFF5E5" stroke="#FFF5E5"/>
<path d="M87.47 709.003C90.1715 710.672 93.7973 709.917 95.5455 707.32C97.129 704.757 96.1828 701.176 93.4382 699.344C90.7366 697.675 87.1108 698.431 85.3626 701.028C83.7791 703.59 84.7254 707.171 87.47 709.003Z" fill="#FFF5E5" stroke="#FFF5E5"/>
<path d="M70.3716 685.091C67.6699 683.422 64.0443 684.178 62.296 686.775C60.7126 689.337 61.6587 692.918 64.4033 694.75C67.1049 696.419 70.7306 695.664 72.4789 693.067C74.0193 690.341 73.0732 686.761 70.3716 685.091Z" fill="#FFF5E5" stroke="#FFF5E5"/>
<path d="M142.666 774.434C145.367 776.102 148.993 775.347 150.74 772.749C152.324 770.187 151.379 766.607 148.634 764.775C145.932 763.105 142.306 763.86 140.558 766.458C138.975 769.02 139.92 772.601 142.666 774.434Z" fill="#FFF5E5" stroke="#FFF5E5"/>
<path d="M119.597 760.179C122.299 761.849 125.924 761.092 127.673 758.496C129.256 755.933 128.309 752.352 125.566 750.52C122.864 748.851 119.238 749.607 117.49 752.204C115.907 754.766 116.853 758.347 119.597 760.179Z" fill="#FFF5E5" stroke="#FFF5E5"/>
<path d="M96.5306 745.926C99.2322 747.595 102.858 746.84 104.606 744.243C106.19 741.68 105.243 738.099 102.499 736.267C99.7973 734.598 96.1716 735.354 94.4233 737.951C92.84 740.513 93.786 744.094 96.5306 745.926Z" fill="#FFF5E5" stroke="#FFF5E5"/>
<path d="M73.4627 731.672C76.1641 733.341 79.79 732.586 81.5383 729.989C83.1216 727.426 82.1756 723.845 79.431 722.013C76.7294 720.344 73.1034 721.1 71.3552 723.697C69.7719 726.259 70.718 729.84 73.4627 731.672Z" fill="#FFF5E5" stroke="#FFF5E5"/>
<path d="M54.7373 718.059C57.8319 717.414 59.686 714.413 58.8786 711.357C58.071 708.301 54.9075 706.346 51.8128 706.991C48.7182 707.636 46.864 710.637 47.6716 713.693C48.4791 716.749 51.6426 718.704 54.7373 718.059Z" fill="#FFF5E5" stroke="#FFF5E5"/>
<path d="M128.657 797.101C131.358 798.77 134.985 798.014 136.733 795.418C138.317 792.855 137.37 789.274 134.626 787.442C131.923 785.772 128.299 786.529 126.55 789.125C124.801 791.722 125.913 795.269 128.657 797.101Z" fill="#FFF5E5" stroke="#FFF5E5"/>
<path d="M105.59 782.848C108.292 784.518 111.917 783.761 113.665 781.164C115.249 778.602 114.302 775.021 111.558 773.189C108.857 771.52 105.231 772.276 103.483 774.872C101.899 777.435 102.845 781.016 105.59 782.848Z" fill="#FFF5E5" stroke="#FFF5E5"/>
<path d="M82.5232 768.595C85.2249 770.264 88.8506 769.508 90.5988 766.911C92.1822 764.349 91.2362 760.768 88.4916 758.936C85.7899 757.267 82.1642 758.023 80.416 760.619C78.8326 763.182 79.7786 766.763 82.5232 768.595Z" fill="#FFF5E5" stroke="#FFF5E5"/>
<path d="M59.4553 754.341C62.1567 756.01 65.7827 755.255 67.5309 752.658C69.1143 750.095 68.1682 746.514 65.4236 744.682C62.722 743.013 59.096 743.769 57.3479 746.366C55.7645 748.928 56.7107 752.509 59.4553 754.341Z" fill="#FFF5E5" stroke="#FFF5E5"/>
<path d="M42.357 730.429C39.6554 728.76 36.0296 729.516 34.2814 732.113C32.698 734.675 33.644 738.256 36.3887 740.088C39.0903 741.757 42.716 741.002 44.4643 738.405C46.0046 735.679 45.0586 732.099 42.357 730.429Z" fill="#FFF5E5" stroke="#FFF5E5"/>
<path d="M114.651 819.771C117.352 821.44 120.979 820.685 122.726 818.087C124.309 815.525 123.364 811.944 120.62 810.113C117.917 808.443 114.291 809.198 112.544 811.796C111.002 814.52 111.906 817.938 114.651 819.771Z" fill="#FFF5E5" stroke="#FFF5E5"/>
<path d="M95.9254 806.158C99.0204 805.513 100.875 802.512 100.067 799.456C99.2589 796.399 96.0956 794.445 93.0008 795.09C89.9062 795.735 88.052 798.735 88.8596 801.792C89.6672 804.848 92.8305 806.803 95.9254 806.158Z" fill="#FFF5E5" stroke="#FFF5E5"/>
<path d="M72.8572 791.904C75.952 791.259 77.8061 788.258 76.9985 785.202C76.1909 782.145 73.0274 780.191 69.9327 780.836C66.8382 781.481 64.984 784.481 65.7916 787.538C66.599 790.594 69.7625 792.549 72.8572 791.904Z" fill="#FFF5E5" stroke="#FFF5E5"/>
<path d="M45.4487 777.01C48.1502 778.679 51.776 777.924 53.5242 775.327C55.1077 772.764 54.1615 769.183 51.4169 767.351C48.7153 765.682 45.0895 766.438 43.3413 769.034C41.636 771.794 42.5393 775.212 45.4487 777.01Z" fill="#FFF5E5" stroke="#FFF5E5"/>
<path d="M28.3496 753.098C25.648 751.429 22.0223 752.185 20.2741 754.782C18.6906 757.344 19.6367 760.925 22.3814 762.757C25.083 764.426 28.7087 763.67 30.4569 761.074C31.9973 758.348 31.0942 754.93 28.3496 753.098Z" fill="#FFF5E5" stroke="#FFF5E5"/>
<path d="M58.8937 814.736C61.9885 814.091 63.8429 811.09 63.0347 808.034C62.2273 804.978 59.0638 803.023 55.9689 803.668C52.875 804.312 51.0207 807.313 51.8279 810.37C52.6353 813.427 55.7988 815.381 58.8937 814.736Z" fill="#FFF5E5" stroke="#FFF5E5"/>
<path d="M37.409 790.02C34.7074 788.351 31.0812 789.107 29.3332 791.704C27.7502 794.266 28.6961 797.847 31.4404 799.679C34.1419 801.349 37.7681 800.592 39.5161 797.996C41.0564 795.271 40.1533 791.853 37.409 790.02Z" fill="#FFF5E5" stroke="#FFF5E5"/>
<path d="M14.3424 775.767C11.6408 774.098 8.01474 774.854 6.26669 777.451C4.68369 780.013 5.62946 783.594 8.37382 785.426C11.0754 787.096 14.7015 786.339 16.4495 783.743C17.9898 781.018 17.0867 777.6 14.3424 775.767Z" fill="#FFF5E5" stroke="#FFF5E5"/>
<path d="M142.304 736.214C145.397 735.568 147.251 732.567 146.445 729.512C145.637 726.455 142.474 724.5 139.379 725.145C136.284 725.79 134.43 728.791 135.238 731.847C136.045 734.904 139.209 736.859 142.304 736.214Z" fill="#FFF5E5" stroke="#FFF5E5"/>
<path d="M142.304 736.214C145.397 735.568 147.251 732.567 146.445 729.512C145.637 726.455 142.474 724.5 139.379 725.145C136.284 725.79 134.43 728.791 135.238 731.847C136.045 734.904 139.209 736.859 142.304 736.214Z" fill="#FFF5E5" stroke="#FFF5E5"/>
<path d="M114.893 721.319C117.595 722.988 121.22 722.232 122.969 719.635C124.552 717.073 123.606 713.492 120.861 711.66C118.16 709.99 114.534 710.746 112.786 713.343C111.038 715.94 111.984 719.521 114.893 721.319Z" fill="#FFF5E5" stroke="#FFF5E5"/>
<path d="M114.893 721.319C117.595 722.988 121.22 722.232 122.969 719.635C124.552 717.073 123.606 713.492 120.861 711.66C118.16 709.99 114.534 710.746 112.786 713.343C111.038 715.94 111.984 719.521 114.893 721.319Z" fill="#FFF5E5" stroke="#FFF5E5"/>
<path d="M91.8265 707.066C94.5281 708.735 98.1538 707.979 99.902 705.382C101.485 702.82 100.539 699.239 97.7947 697.407C95.0931 695.738 91.4674 696.493 89.7192 699.09C87.971 701.687 88.9171 705.268 91.8265 707.066Z" fill="#FFF5E5" stroke="#FFF5E5"/>
<path d="M91.8265 707.066C94.5281 708.735 98.1538 707.979 99.902 705.382C101.485 702.82 100.539 699.239 97.7947 697.407C95.0931 695.738 91.4674 696.493 89.7192 699.09C87.971 701.687 88.9171 705.268 91.8265 707.066Z" fill="#FFF5E5" stroke="#FFF5E5"/>
<path d="M68.7581 692.812C71.4597 694.482 75.0854 693.726 76.8336 691.129C78.4171 688.566 77.4709 684.986 74.7264 683.154C72.0248 681.484 68.399 682.24 66.6508 684.837C64.9024 687.434 65.8487 691.015 68.7581 692.812Z" fill="#FFF5E5" stroke="#FFF5E5"/>
<path d="M68.7581 692.812C71.4597 694.482 75.0854 693.726 76.8336 691.129C78.4171 688.566 77.4709 684.986 74.7264 683.154C72.0248 681.484 68.399 682.24 66.6508 684.837C64.9024 687.434 65.8487 691.015 68.7581 692.812Z" fill="#FFF5E5" stroke="#FFF5E5"/>
<path d="M50.0335 679.2C53.1281 678.555 54.9823 675.554 54.1748 672.498C53.3672 669.442 50.2037 667.487 47.109 668.132C44.0144 668.777 42.1603 671.778 42.9678 674.834C43.7753 677.89 46.9388 679.845 50.0335 679.2Z" fill="#FFF5E5" stroke="#FFF5E5"/>
<path d="M50.0335 679.2C53.1281 678.555 54.9823 675.554 54.1748 672.498C53.3672 669.442 50.2037 667.487 47.109 668.132C44.0144 668.777 42.1603 671.778 42.9678 674.834C43.7753 677.89 46.9388 679.845 50.0335 679.2Z" fill="#FFF5E5" stroke="#FFF5E5"/>
<path d="M123.953 758.241C126.656 759.911 130.281 759.155 132.029 756.558C133.613 753.996 132.666 750.414 129.922 748.583C127.221 746.913 123.595 747.669 121.847 750.266C120.098 752.863 121.044 756.444 123.953 758.241Z" fill="#FFF5E5" stroke="#FFF5E5"/>
<path d="M123.953 758.241C126.656 759.911 130.281 759.155 132.029 756.558C133.613 753.996 132.666 750.414 129.922 748.583C127.221 746.913 123.595 747.669 121.847 750.266C120.098 752.863 121.044 756.444 123.953 758.241Z" fill="#FFF5E5" stroke="#FFF5E5"/>
<path d="M105.228 744.628C108.323 743.983 110.177 740.983 109.369 737.926C108.561 734.87 105.398 732.915 102.303 733.56C99.2086 734.205 97.3546 737.206 98.1621 740.262C98.9697 743.319 102.133 745.273 105.228 744.628Z" fill="#FFF5E5" stroke="#FFF5E5"/>
<path d="M105.228 744.628C108.323 743.983 110.177 740.983 109.369 737.926C108.561 734.87 105.398 732.915 102.303 733.56C99.2086 734.205 97.3546 737.206 98.1621 740.262C98.9697 743.319 102.133 745.273 105.228 744.628Z" fill="#FFF5E5" stroke="#FFF5E5"/>
<path d="M77.8187 729.735C80.5203 731.405 84.1461 730.649 85.8943 728.052C87.4777 725.489 86.5316 721.908 83.787 720.076C81.0854 718.407 77.4597 719.163 75.7115 721.76C73.9633 724.357 74.9093 727.938 77.8187 729.735Z" fill="#FFF5E5" stroke="#FFF5E5"/>
<path d="M77.8187 729.735C80.5203 731.405 84.1461 730.649 85.8943 728.052C87.4777 725.489 86.5316 721.908 83.787 720.076C81.0854 718.407 77.4597 719.163 75.7115 721.76C73.9633 724.357 74.9093 727.938 77.8187 729.735Z" fill="#FFF5E5" stroke="#FFF5E5"/>
<path d="M54.7507 715.481C57.4523 717.151 61.0781 716.395 62.8263 713.798C64.4097 711.235 63.4636 707.655 60.719 705.822C58.0174 704.153 54.3917 704.909 52.6435 707.506C50.8951 710.103 51.8413 713.684 54.7507 715.481Z" fill="#FFF5E5" stroke="#FFF5E5"/>
<path d="M54.7507 715.481C57.4523 717.151 61.0781 716.395 62.8263 713.798C64.4097 711.235 63.4636 707.655 60.719 705.822C58.0174 704.153 54.3917 704.909 52.6435 707.506C50.8951 710.103 51.8413 713.684 54.7507 715.481Z" fill="#FFF5E5" stroke="#FFF5E5"/>
<path d="M36.0262 701.869C39.1208 701.224 40.9751 698.223 40.1674 695.167C39.3599 692.111 36.1964 690.156 33.1017 690.801C30.0071 691.446 28.153 694.447 28.9604 697.503C29.768 700.559 32.9315 702.514 36.0262 701.869Z" fill="#FFF5E5" stroke="#FFF5E5"/>
<path d="M36.0262 701.869C39.1208 701.224 40.9751 698.223 40.1674 695.167C39.3599 692.111 36.1964 690.156 33.1017 690.801C30.0071 691.446 28.153 694.447 28.9604 697.503C29.768 700.559 32.9315 702.514 36.0262 701.869Z" fill="#FFF5E5" stroke="#FFF5E5"/>
<path d="M109.781 780.945C112.483 782.615 116.108 781.858 117.856 779.261C119.44 776.699 118.493 773.118 115.749 771.286C113.004 769.454 109.422 770.372 107.673 772.969C106.09 775.532 107.036 779.113 109.781 780.945Z" fill="#FFF5E5" stroke="#FFF5E5"/>
<path d="M109.781 780.945C112.483 782.615 116.108 781.858 117.856 779.261C119.44 776.699 118.493 773.118 115.749 771.286C113.004 769.454 109.422 770.372 107.673 772.969C106.09 775.532 107.036 779.113 109.781 780.945Z" fill="#FFF5E5" stroke="#FFF5E5"/>
<path d="M91.22 767.298C94.3148 766.653 96.1689 763.652 95.3613 760.596C94.5537 757.54 91.3903 755.585 88.2957 756.23C85.2009 756.875 83.3468 759.876 84.1544 762.932C84.962 765.989 88.1254 767.943 91.22 767.298Z" fill="#FFF5E5" stroke="#FFF5E5"/>
<path d="M91.22 767.298C94.3148 766.653 96.1689 763.652 95.3613 760.596C94.5537 757.54 91.3903 755.585 88.2957 756.23C85.2009 756.875 83.3468 759.876 84.1544 762.932C84.962 765.989 88.1254 767.943 91.22 767.298Z" fill="#FFF5E5" stroke="#FFF5E5"/>
<path d="M63.6469 752.439C66.3485 754.108 69.9742 753.352 71.7224 750.755C73.3058 748.193 72.3597 744.612 69.6151 742.78C66.9135 741.11 63.2878 741.866 61.5396 744.463C59.9561 747.026 60.9023 750.606 63.6469 752.439Z" fill="#FFF5E5" stroke="#FFF5E5"/>
<path d="M63.6469 752.439C66.3485 754.108 69.9742 753.352 71.7224 750.755C73.3058 748.193 72.3597 744.612 69.6151 742.78C66.9135 741.11 63.2878 741.866 61.5396 744.463C59.9561 747.026 60.9023 750.606 63.6469 752.439Z" fill="#FFF5E5" stroke="#FFF5E5"/>
<path d="M45.0853 738.791C48.1801 738.146 50.0342 735.145 49.2265 732.089C48.419 729.032 45.2556 727.078 42.161 727.723C39.0662 728.368 37.2121 731.369 38.0197 734.425C38.8273 737.481 41.9906 739.436 45.0853 738.791Z" fill="#FFF5E5" stroke="#FFF5E5"/>
<path d="M45.0853 738.791C48.1801 738.146 50.0342 735.145 49.2265 732.089C48.419 729.032 45.2556 727.078 42.161 727.723C39.0662 728.368 37.2121 731.369 38.0197 734.425C38.8273 737.481 41.9906 739.436 45.0853 738.791Z" fill="#FFF5E5" stroke="#FFF5E5"/>
<path d="M23.4805 714.273C20.7788 712.603 17.1532 713.359 15.4049 715.956C13.8215 718.519 14.7676 722.099 17.5122 723.932C20.2138 725.601 23.8395 724.845 25.5878 722.248C27.293 719.489 26.3469 715.908 23.4805 714.273Z" fill="#FFF5E5" stroke="#FFF5E5"/>
<path d="M23.4805 714.273C20.7788 712.603 17.1532 713.359 15.4049 715.956C13.8215 718.519 14.7676 722.099 17.5122 723.932C20.2138 725.601 23.8395 724.845 25.5878 722.248C27.293 719.489 26.3469 715.908 23.4805 714.273Z" fill="#FFF5E5" stroke="#FFF5E5"/>
<path d="M95.7751 803.614C98.476 805.283 102.102 804.528 103.849 801.93C105.433 799.368 104.488 795.787 101.743 793.955C99.0412 792.286 95.4155 793.042 93.6673 795.638C92.0838 798.201 93.0299 801.782 95.7751 803.614Z" fill="#FFF5E5" stroke="#FFF5E5"/>
<path d="M95.7751 803.614C98.476 805.283 102.102 804.528 103.849 801.93C105.433 799.368 104.488 795.787 101.743 793.955C99.0412 792.286 95.4155 793.042 93.6673 795.638C92.0838 798.201 93.0299 801.782 95.7751 803.614Z" fill="#FFF5E5" stroke="#FFF5E5"/>
<path d="M77.2139 789.965C80.3087 789.32 82.1628 786.319 81.3551 783.263C80.5476 780.207 77.3843 778.252 74.2895 778.897C71.1949 779.542 69.3407 782.543 70.1483 785.599C70.9559 788.656 74.1193 790.61 77.2139 789.965Z" fill="#FFF5E5" stroke="#FFF5E5"/>
<path d="M77.2139 789.965C80.3087 789.32 82.1628 786.319 81.3551 783.263C80.5476 780.207 77.3843 778.252 74.2895 778.897C71.1949 779.542 69.3407 782.543 70.1483 785.599C70.9559 788.656 74.1193 790.61 77.2139 789.965Z" fill="#FFF5E5" stroke="#FFF5E5"/>
<path d="M54.147 775.713C57.2417 775.068 59.0957 772.067 58.2882 769.011C57.4806 765.954 54.3172 764 51.2225 764.645C48.1279 765.29 46.2738 768.29 47.0813 771.347C47.8888 774.403 51.0522 776.358 54.147 775.713Z" fill="#FFF5E5" stroke="#FFF5E5"/>
<path d="M54.147 775.713C57.2417 775.068 59.0957 772.067 58.2882 769.011C57.4806 765.954 54.3172 764 51.2225 764.645C48.1279 765.29 46.2738 768.29 47.0813 771.347C47.8888 774.403 51.0522 776.358 54.147 775.713Z" fill="#FFF5E5" stroke="#FFF5E5"/>
<path d="M26.5715 760.854C29.273 762.523 32.8988 761.767 34.647 759.17C36.2305 756.608 35.2844 753.027 32.5397 751.195C29.8381 749.526 26.2124 750.281 24.4641 752.878C22.8806 755.441 23.8269 759.022 26.5715 760.854Z" fill="#FFF5E5" stroke="#FFF5E5"/>
<path d="M26.5715 760.854C29.273 762.523 32.8988 761.767 34.647 759.17C36.2305 756.608 35.2844 753.027 32.5397 751.195C29.8381 749.526 26.2124 750.281 24.4641 752.878C22.8806 755.441 23.8269 759.022 26.5715 760.854Z" fill="#FFF5E5" stroke="#FFF5E5"/>
<path d="M9.47256 736.941C6.77109 735.272 3.14525 736.027 1.39704 738.624C-0.351184 741.221 0.759713 744.768 3.50433 746.6C6.24894 748.432 9.83178 747.513 11.58 744.916C13.2852 742.157 12.339 738.576 9.47256 736.941Z" fill="#FFF5E5" stroke="#FFF5E5"/>
<path d="M9.47256 736.941C6.77109 735.272 3.14525 736.027 1.39704 738.624C-0.351184 741.221 0.759713 744.768 3.50433 746.6C6.24894 748.432 9.83178 747.513 11.58 744.916C13.2852 742.157 12.339 738.576 9.47256 736.941Z" fill="#FFF5E5" stroke="#FFF5E5"/>
<path d="M63.2065 812.634C66.3014 811.989 68.1557 808.988 67.3474 805.932C66.54 802.876 63.3767 800.921 60.2818 801.566C57.1878 802.21 55.3335 805.211 56.1409 808.268C56.9482 811.325 60.1117 813.279 63.2065 812.634Z" fill="#FFF5E5" stroke="#FFF5E5"/>
<path d="M63.2065 812.634C66.3014 811.989 68.1557 808.988 67.3474 805.932C66.54 802.876 63.3767 800.921 60.2818 801.566C57.1878 802.21 55.3335 805.211 56.1409 808.268C56.9482 811.325 60.1117 813.279 63.2065 812.634Z" fill="#FFF5E5" stroke="#FFF5E5"/>
<path d="M41.6001 788.118C38.8985 786.449 35.2733 787.204 33.5252 789.8C31.9414 792.364 32.8872 795.945 35.6324 797.776C38.334 799.445 41.9592 798.69 43.7081 796.092C45.4125 793.334 44.4667 789.753 41.6001 788.118Z" fill="#FFF5E5" stroke="#FFF5E5"/>
<path d="M41.6001 788.118C38.8985 786.449 35.2733 787.204 33.5252 789.8C31.9414 792.364 32.8872 795.945 35.6324 797.776C38.334 799.445 41.9592 798.69 43.7081 796.092C45.4125 793.334 44.4667 789.753 41.6001 788.118Z" fill="#FFF5E5" stroke="#FFF5E5"/>
<path d="M18.533 773.863C15.8313 772.193 12.2062 772.948 10.458 775.545C8.87412 778.108 9.82004 781.69 12.5653 783.521C15.2667 785.19 18.892 784.435 20.641 781.837C22.3454 779.079 21.3996 775.497 18.533 773.863Z" fill="#FFF5E5" stroke="#FFF5E5"/>
<path d="M18.533 773.863C15.8313 772.193 12.2062 772.948 10.458 775.545C8.87412 778.108 9.82004 781.69 12.5653 783.521C15.2667 785.19 18.892 784.435 20.641 781.837C22.3454 779.079 21.3996 775.497 18.533 773.863Z" fill="#FFF5E5" stroke="#FFF5E5"/>
<path d="M-4.53366 759.61C-7.23527 757.94 -10.8604 758.695 -12.6085 761.292C-14.1923 763.855 -13.2466 767.437 -10.5014 769.268C-7.79974 770.937 -4.17458 770.182 -2.42567 767.584C-0.721223 764.826 -1.667 761.244 -4.53366 759.61Z" fill="#FFF5E5" stroke="#FFF5E5"/>
<path d="M-4.53366 759.61C-7.23527 757.94 -10.8604 758.695 -12.6085 761.292C-14.1923 763.855 -13.2466 767.437 -10.5014 769.268C-7.79974 770.937 -4.17458 770.182 -2.42567 767.584C-0.721223 764.826 -1.667 761.244 -4.53366 759.61Z" fill="#FFF5E5" stroke="#FFF5E5"/>
<g clip-path="url(#clip1_298_1556)">
<path d="M190.693 209.181C193.271 208.503 196.109 210.072 196.787 212.65C197.465 215.228 195.896 218.066 193.318 218.744C190.74 219.422 187.902 217.853 187.224 215.275C186.446 212.481 188.115 209.859 190.693 209.181Z" fill="#F9ECD9" stroke="#F9ECD9"/>
<path d="M190.693 209.181C193.271 208.503 196.109 210.072 196.787 212.65C197.465 215.228 195.896 218.066 193.318 218.744C190.74 219.422 187.902 217.853 187.224 215.275C186.446 212.481 188.115 209.859 190.693 209.181Z" fill="#F9ECD9" stroke="#F9ECD9"/>
<path d="M174.448 174.402C177.026 173.724 179.864 175.293 180.542 177.871C181.22 180.449 179.651 183.287 177.073 183.965C174.495 184.643 171.657 183.074 170.979 180.496C170.302 177.918 171.871 175.08 174.448 174.402Z" fill="#F9ECD9" stroke="#F9ECD9"/>
<path d="M174.448 174.402C177.026 173.724 179.864 175.293 180.542 177.871C181.22 180.449 179.651 183.287 177.073 183.965C174.495 184.643 171.657 183.074 170.979 180.496C170.302 177.918 171.871 175.08 174.448 174.402Z" fill="#F9ECD9" stroke="#F9ECD9"/>
<path d="M158.305 139.84C160.883 139.162 163.721 140.731 164.398 143.309C165.076 145.887 163.507 148.725 160.929 149.403C158.351 150.081 155.513 148.512 154.835 145.934C154.057 143.14 155.626 140.302 158.305 139.84Z" fill="#F9ECD9" stroke="#F9ECD9"/>
<path d="M158.305 139.84C160.883 139.162 163.721 140.731 164.398 143.309C165.076 145.887 163.507 148.725 160.929 149.403C158.351 150.081 155.513 148.512 154.835 145.934C154.057 143.14 155.626 140.302 158.305 139.84Z" fill="#F9ECD9" stroke="#F9ECD9"/>
<path d="M142.059 105.062C144.637 104.384 147.476 105.953 148.153 108.531C148.831 111.109 147.262 113.947 144.684 114.625C142.106 115.302 139.268 113.734 138.59 111.156C137.812 108.362 139.482 105.739 142.059 105.062Z" fill="#F9ECD9" stroke="#F9ECD9"/>
<path d="M142.059 105.062C144.637 104.384 147.476 105.953 148.153 108.531C148.831 111.109 147.262 113.947 144.684 114.625C142.106 115.302 139.268 113.734 138.59 111.156C137.812 108.362 139.482 105.739 142.059 105.062Z" fill="#F9ECD9" stroke="#F9ECD9"/>
<path d="M125.814 70.2827C128.392 69.6048 131.23 71.1738 131.908 73.7518C132.586 76.3297 131.017 79.1677 128.439 79.8455C125.861 80.5234 123.023 78.9546 122.345 76.3766C121.667 73.7986 123.236 70.9606 125.814 70.2827Z" fill="#F9ECD9" stroke="#F9ECD9"/>
<path d="M125.814 70.2827C128.392 69.6048 131.23 71.1738 131.908 73.7518C132.586 76.3297 131.017 79.1677 128.439 79.8455C125.861 80.5234 123.023 78.9546 122.345 76.3766C121.667 73.7986 123.236 70.9606 125.814 70.2827Z" fill="#F9ECD9" stroke="#F9ECD9"/>
<path d="M219.855 195.559C222.433 194.881 225.271 196.45 225.949 199.028C226.627 201.606 225.058 204.444 222.48 205.122C219.902 205.8 217.064 204.231 216.386 201.653C215.607 198.859 217.277 196.237 219.855 195.559Z" fill="#F9ECD9" stroke="#F9ECD9"/>
<path d="M219.855 195.559C222.433 194.881 225.271 196.45 225.949 199.028C226.627 201.606 225.058 204.444 222.48 205.122C219.902 205.8 217.064 204.231 216.386 201.653C215.607 198.859 217.277 196.237 219.855 195.559Z" fill="#F9ECD9" stroke="#F9ECD9"/>
<path d="M203.611 160.781C206.188 160.103 209.026 161.672 209.704 164.25C210.382 166.828 208.813 169.666 206.235 170.344C203.657 171.021 200.819 169.453 200.141 166.875C199.463 164.297 201.033 161.459 203.611 160.781Z" fill="#F9ECD9" stroke="#F9ECD9"/>
<path d="M203.611 160.781C206.188 160.103 209.026 161.672 209.704 164.25C210.382 166.828 208.813 169.666 206.235 170.344C203.657 171.021 200.819 169.453 200.141 166.875C199.463 164.297 201.033 161.459 203.611 160.781Z" fill="#F9ECD9" stroke="#F9ECD9"/>
<path d="M187.467 126.219C190.044 125.541 192.882 127.11 193.56 129.688C194.238 132.266 192.669 135.104 190.091 135.781C187.513 136.459 184.675 134.891 183.997 132.313C183.218 129.519 184.788 126.68 187.467 126.219Z" fill="#F9ECD9" stroke="#F9ECD9"/>
<path d="M187.467 126.219C190.044 125.541 192.882 127.11 193.56 129.688C194.238 132.266 192.669 135.104 190.091 135.781C187.513 136.459 184.675 134.891 183.997 132.313C183.218 129.519 184.788 126.68 187.467 126.219Z" fill="#F9ECD9" stroke="#F9ECD9"/>
<path d="M171.221 91.4399C173.799 90.762 176.638 92.3312 177.315 94.9091C177.993 97.4871 176.424 100.325 173.846 101.003C171.268 101.681 168.43 100.112 167.752 97.534C166.974 94.74 168.643 92.1177 171.221 91.4399Z" fill="#F9ECD9" stroke="#F9ECD9"/>
<path d="M171.221 91.4399C173.799 90.762 176.638 92.3312 177.315 94.9091C177.993 97.4871 176.424 100.325 173.846 101.003C171.268 101.681 168.43 100.112 167.752 97.534C166.974 94.74 168.643 92.1177 171.221 91.4399Z" fill="#F9ECD9" stroke="#F9ECD9"/>
<path d="M154.977 56.6615C157.554 55.9837 160.393 57.5527 161.07 60.1306C161.748 62.7086 160.179 65.5465 157.601 66.2244C155.023 66.9022 152.185 65.3335 151.507 62.7555C150.829 60.1776 152.399 57.3394 154.977 56.6615Z" fill="#F9ECD9" stroke="#F9ECD9"/>
<path d="M154.977 56.6615C157.554 55.9837 160.393 57.5527 161.07 60.1306C161.748 62.7086 160.179 65.5465 157.601 66.2244C155.023 66.9022 152.185 65.3335 151.507 62.7555C150.829 60.1776 152.399 57.3394 154.977 56.6615Z" fill="#F9ECD9" stroke="#F9ECD9"/>
<path d="M249.232 181.837C251.81 181.159 254.648 182.728 255.326 185.306C256.004 187.884 254.435 190.722 251.857 191.4C249.279 192.078 246.441 190.509 245.763 187.931C244.985 185.137 246.438 182.616 249.232 181.837Z" fill="#F9ECD9" stroke="#F9ECD9"/>
<path d="M249.232 181.837C251.81 181.159 254.648 182.728 255.326 185.306C256.004 187.884 254.435 190.722 251.857 191.4C249.279 192.078 246.441 190.509 245.763 187.931C244.985 185.137 246.438 182.616 249.232 181.837Z" fill="#F9ECD9" stroke="#F9ECD9"/>
<path d="M232.987 147.059C235.565 146.381 238.403 147.95 239.081 150.528C239.759 153.106 238.19 155.944 235.612 156.622C233.034 157.299 230.196 155.73 229.518 153.152C228.841 150.574 230.193 147.837 232.987 147.059Z" fill="#F9ECD9" stroke="#F9ECD9"/>
<path d="M232.987 147.059C235.565 146.381 238.403 147.95 239.081 150.528C239.759 153.106 238.19 155.944 235.612 156.622C233.034 157.299 230.196 155.73 229.518 153.152C228.841 150.574 230.193 147.837 232.987 147.059Z" fill="#F9ECD9" stroke="#F9ECD9"/>
<path d="M216.843 112.497C219.421 111.819 222.259 113.388 222.937 115.966C223.615 118.544 222.046 121.382 219.468 122.06C216.89 122.737 214.052 121.168 213.375 118.59C212.596 115.796 213.948 113.059 216.843 112.497Z" fill="#F9ECD9" stroke="#F9ECD9"/>
<path d="M216.843 112.497C219.421 111.819 222.259 113.388 222.937 115.966C223.615 118.544 222.046 121.382 219.468 122.06C216.89 122.737 214.052 121.168 213.375 118.59C212.596 115.796 213.948 113.059 216.843 112.497Z" fill="#F9ECD9" stroke="#F9ECD9"/>
<path d="M200.598 77.7179C203.176 77.04 206.014 78.6092 206.692 81.1871C207.37 83.7651 205.801 86.6031 203.223 87.281C200.645 87.9588 197.807 86.3898 197.13 83.8118C196.351 81.0179 197.804 78.4967 200.598 77.7179Z" fill="#F9ECD9" stroke="#F9ECD9"/>
<path d="M200.598 77.7179C203.176 77.04 206.014 78.6092 206.692 81.1871C207.37 83.7651 205.801 86.6031 203.223 87.281C200.645 87.9588 197.807 86.3898 197.13 83.8118C196.351 81.0179 197.804 78.4967 200.598 77.7179Z" fill="#F9ECD9" stroke="#F9ECD9"/>
<path d="M184.353 42.9396C186.931 42.2617 189.769 43.8307 190.447 46.4087C191.125 48.9866 189.556 51.8245 186.978 52.5024C184.4 53.1803 181.562 51.6113 180.885 49.0333C180.207 46.4554 181.559 43.7183 184.353 42.9396Z" fill="#F9ECD9" stroke="#F9ECD9"/>
<path d="M184.353 42.9396C186.931 42.2617 189.769 43.8307 190.447 46.4087C191.125 48.9866 189.556 51.8245 186.978 52.5024C184.4 53.1803 181.562 51.6113 180.885 49.0333C180.207 46.4554 181.559 43.7183 184.353 42.9396Z" fill="#F9ECD9" stroke="#F9ECD9"/>
<path d="M278.394 168.215C280.972 167.538 283.81 169.107 284.488 171.685C285.166 174.263 283.597 177.101 281.019 177.779C278.441 178.456 275.603 176.887 274.925 174.309C274.147 171.515 275.816 168.893 278.394 168.215Z" fill="#F9ECD9" stroke="#F9ECD9"/>
<path d="M278.394 168.215C280.972 167.538 283.81 169.107 284.488 171.685C285.166 174.263 283.597 177.101 281.019 177.779C278.441 178.456 275.603 176.887 274.925 174.309C274.147 171.515 275.816 168.893 278.394 168.215Z" fill="#F9ECD9" stroke="#F9ECD9"/>
<path d="M262.149 133.437C264.727 132.759 267.565 134.328 268.243 136.906C268.921 139.484 267.352 142.322 264.774 143C262.196 143.678 259.358 142.109 258.68 139.531C258.003 136.953 259.571 134.115 262.149 133.437Z" fill="#F9ECD9" stroke="#F9ECD9"/>
<path d="M262.149 133.437C264.727 132.759 267.565 134.328 268.243 136.906C268.921 139.484 267.352 142.322 264.774 143C262.196 143.678 259.358 142.109 258.68 139.531C258.003 136.953 259.571 134.115 262.149 133.437Z" fill="#F9ECD9" stroke="#F9ECD9"/>
<path d="M246.005 98.8751C248.583 98.1972 251.421 99.7662 252.099 102.344C252.777 104.922 251.208 107.76 248.63 108.438C246.052 109.116 243.214 107.547 242.536 104.969C241.758 102.175 243.326 99.3369 246.005 98.8751Z" fill="#F9ECD9" stroke="#F9ECD9"/>
<path d="M246.005 98.8751C248.583 98.1972 251.421 99.7662 252.099 102.344C252.777 104.922 251.208 107.76 248.63 108.438C246.052 109.116 243.214 107.547 242.536 104.969C241.758 102.175 243.326 99.3369 246.005 98.8751Z" fill="#F9ECD9" stroke="#F9ECD9"/>
<path d="M229.76 64.0963C232.338 63.4184 235.176 64.9876 235.854 67.5656C236.532 70.1435 234.963 72.9815 232.385 73.6594C229.807 74.3373 226.969 72.7682 226.291 70.1902C225.513 67.3963 227.182 64.7742 229.76 64.0963Z" fill="#F9ECD9" stroke="#F9ECD9"/>
<path d="M229.76 64.0963C232.338 63.4184 235.176 64.9876 235.854 67.5656C236.532 70.1435 234.963 72.9815 232.385 73.6594C229.807 74.3373 226.969 72.7682 226.291 70.1902C225.513 67.3963 227.182 64.7742 229.76 64.0963Z" fill="#F9ECD9" stroke="#F9ECD9"/>
<path d="M213.515 29.318C216.093 28.6401 218.931 30.2091 219.609 32.7871C220.287 35.365 218.718 38.2029 216.14 38.8808C213.562 39.5587 210.724 37.9897 210.046 35.4118C209.369 32.8338 210.937 29.9959 213.515 29.318Z" fill="#F9ECD9" stroke="#F9ECD9"/>
<path d="M213.515 29.318C216.093 28.6401 218.931 30.2091 219.609 32.7871C220.287 35.365 218.718 38.2029 216.14 38.8808C213.562 39.5587 210.724 37.9897 210.046 35.4118C209.369 32.8338 210.937 29.9959 213.515 29.318Z" fill="#F9ECD9" stroke="#F9ECD9"/>
<path d="M307.556 154.594C310.134 153.916 312.972 155.486 313.65 158.064C314.328 160.642 312.759 163.48 310.181 164.157C307.603 164.835 304.765 163.266 304.087 160.688C303.308 157.894 304.978 155.272 307.556 154.594Z" fill="#F9ECD9" stroke="#F9ECD9"/>
<path d="M307.556 154.594C310.134 153.916 312.972 155.486 313.65 158.064C314.328 160.642 312.759 163.48 310.181 164.157C307.603 164.835 304.765 163.266 304.087 160.688C303.308 157.894 304.978 155.272 307.556 154.594Z" fill="#F9ECD9" stroke="#F9ECD9"/>
<path d="M291.311 119.816C293.889 119.138 296.727 120.707 297.405 123.285C298.083 125.863 296.514 128.701 293.936 129.379C291.358 130.057 288.52 128.488 287.842 125.91C287.164 123.332 288.733 120.494 291.311 119.816Z" fill="#F9ECD9" stroke="#F9ECD9"/>
<path d="M291.311 119.816C293.889 119.138 296.727 120.707 297.405 123.285C298.083 125.863 296.514 128.701 293.936 129.379C291.358 130.057 288.52 128.488 287.842 125.91C287.164 123.332 288.733 120.494 291.311 119.816Z" fill="#F9ECD9" stroke="#F9ECD9"/>
<path d="M275.167 85.2535C277.745 84.5756 280.583 86.1446 281.261 88.7225C281.939 91.3005 280.37 94.1385 277.792 94.8164C275.214 95.4942 272.376 93.9252 271.698 91.3472C270.92 88.5533 272.488 85.7153 275.167 85.2535Z" fill="#F9ECD9" stroke="#F9ECD9"/>
<path d="M275.167 85.2535C277.745 84.5756 280.583 86.1446 281.261 88.7225C281.939 91.3005 280.37 94.1385 277.792 94.8164C275.214 95.4942 272.376 93.9252 271.698 91.3472C270.92 88.5533 272.488 85.7153 275.167 85.2535Z" fill="#F9ECD9" stroke="#F9ECD9"/>
<path d="M258.922 50.4747C261.5 49.7968 264.338 51.366 265.016 53.944C265.694 56.5219 264.125 59.3599 261.547 60.0378C258.969 60.7157 256.131 59.1466 255.453 56.5687C254.675 53.7747 256.344 51.1526 258.922 50.4747Z" fill="#F9ECD9" stroke="#F9ECD9"/>
<path d="M258.922 50.4747C261.5 49.7968 264.338 51.366 265.016 53.944C265.694 56.5219 264.125 59.3599 261.547 60.0378C258.969 60.7157 256.131 59.1466 255.453 56.5687C254.675 53.7747 256.344 51.1526 258.922 50.4747Z" fill="#F9ECD9" stroke="#F9ECD9"/>
<path d="M242.677 15.6969C245.255 15.019 248.093 16.588 248.771 19.166C249.449 21.7439 247.88 24.5818 245.302 25.2597C242.724 25.9376 239.886 24.3686 239.208 21.7907C238.53 19.2127 240.099 16.3748 242.677 15.6969Z" fill="#F9ECD9" stroke="#F9ECD9"/>
<path d="M242.677 15.6969C245.255 15.019 248.093 16.588 248.771 19.166C249.449 21.7439 247.88 24.5818 245.302 25.2597C242.724 25.9376 239.886 24.3686 239.208 21.7907C238.53 19.2127 240.099 16.3748 242.677 15.6969Z" fill="#F9ECD9" stroke="#F9ECD9"/>
<path d="M336.935 140.871C339.513 140.193 342.351 141.762 343.029 144.34C343.707 146.918 342.138 149.756 339.56 150.434C336.982 151.112 334.144 149.543 333.466 146.965C332.471 144.272 334.141 141.65 336.935 140.871Z" fill="#F9ECD9" stroke="#F9ECD9"/>
<path d="M336.935 140.871C339.513 140.193 342.351 141.762 343.029 144.34C343.707 146.918 342.138 149.756 339.56 150.434C336.982 151.112 334.144 149.543 333.466 146.965C332.471 144.272 334.141 141.65 336.935 140.871Z" fill="#F9ECD9" stroke="#F9ECD9"/>
<path d="M320.691 106.093C323.268 105.415 326.106 106.984 326.784 109.562C327.462 112.14 325.893 114.978 323.315 115.656C320.737 116.334 317.899 114.765 317.221 112.187C316.327 109.71 317.897 106.871 320.691 106.093Z" fill="#F9ECD9" stroke="#F9ECD9"/>
<path d="M320.691 106.093C323.268 105.415 326.106 106.984 326.784 109.562C327.462 112.14 325.893 114.978 323.315 115.656C320.737 116.334 317.899 114.765 317.221 112.187C316.327 109.71 317.897 106.871 320.691 106.093Z" fill="#F9ECD9" stroke="#F9ECD9"/>
<path d="M304.547 71.5306C307.125 70.8528 309.962 72.4218 310.64 74.9998C311.318 77.5777 309.749 80.4157 307.171 81.0936C304.593 81.7715 301.755 80.2025 301.077 77.6246C300.083 74.9315 301.652 72.0934 304.547 71.5306Z" fill="#F9ECD9" stroke="#F9ECD9"/>
<path d="M304.547 71.5306C307.125 70.8528 309.962 72.4218 310.64 74.9998C311.318 77.5777 309.749 80.4157 307.171 81.0936C304.593 81.7715 301.755 80.2025 301.077 77.6246C300.083 74.9315 301.652 72.0934 304.547 71.5306Z" fill="#F9ECD9" stroke="#F9ECD9"/>
<path d="M288.302 36.7519C290.879 36.074 293.717 37.6433 294.395 40.2212C295.073 42.7992 293.504 45.6372 290.926 46.3151C288.348 46.9929 285.51 45.424 284.832 42.846C283.838 40.1529 285.508 37.5306 288.302 36.7519Z" fill="#F9ECD9" stroke="#F9ECD9"/>
<path d="M288.302 36.7519C290.879 36.074 293.717 37.6433 294.395 40.2212C295.073 42.7992 293.504 45.6372 290.926 46.3151C288.348 46.9929 285.51 45.424 284.832 42.846C283.838 40.1529 285.508 37.5306 288.302 36.7519Z" fill="#F9ECD9" stroke="#F9ECD9"/>
<path d="M272.057 1.97356C274.635 1.29569 277.472 2.86479 278.15 5.44275C278.828 8.0207 277.259 10.8586 274.681 11.5365C272.103 12.2143 269.265 10.6455 268.587 8.06752C267.694 5.59046 269.263 2.75233 272.057 1.97356Z" fill="#F9ECD9" stroke="#F9ECD9"/>
<path d="M272.057 1.97356C274.635 1.29569 277.472 2.86479 278.15 5.44275C278.828 8.0207 277.259 10.8586 274.681 11.5365C272.103 12.2143 269.265 10.6455 268.587 8.06752C267.694 5.59046 269.263 2.75233 272.057 1.97356Z" fill="#F9ECD9" stroke="#F9ECD9"/>
<path d="M366.097 127.249C368.675 126.572 371.513 128.141 372.191 130.719C372.869 133.297 371.3 136.135 368.722 136.813C366.144 137.49 363.306 135.922 362.628 133.344C361.849 130.55 363.519 127.927 366.097 127.249Z" fill="#F9ECD9" stroke="#F9ECD9"/>
<path d="M366.097 127.249C368.675 126.572 371.513 128.141 372.191 130.719C372.869 133.297 371.3 136.135 368.722 136.813C366.144 137.49 363.306 135.922 362.628 133.344C361.849 130.55 363.519 127.927 366.097 127.249Z" fill="#F9ECD9" stroke="#F9ECD9"/>
<path d="M349.852 92.4711C352.43 91.7932 355.268 93.3623 355.946 95.9403C356.624 98.5182 355.055 101.356 352.477 102.034C349.899 102.712 347.061 101.143 346.383 98.565C345.705 95.9871 347.274 93.149 349.852 92.4711Z" fill="#F9ECD9" stroke="#F9ECD9"/>
<path d="M349.852 92.4711C352.43 91.7932 355.268 93.3623 355.946 95.9403C356.624 98.5182 355.055 101.356 352.477 102.034C349.899 102.712 347.061 101.143 346.383 98.565C345.705 95.9871 347.274 93.149 349.852 92.4711Z" fill="#F9ECD9" stroke="#F9ECD9"/>
<path d="M333.708 57.9091C336.286 57.2312 339.124 58.8002 339.802 61.3782C340.48 63.9561 338.911 66.7942 336.333 67.472C333.755 68.1499 330.917 66.5809 330.239 64.003C329.46 61.209 331.03 58.3709 333.708 57.9091Z" fill="#F9ECD9" stroke="#F9ECD9"/>
<path d="M333.708 57.9091C336.286 57.2312 339.124 58.8002 339.802 61.3782C340.48 63.9561 338.911 66.7942 336.333 67.472C333.755 68.1499 330.917 66.5809 330.239 64.003C329.46 61.209 331.03 58.3709 333.708 57.9091Z" fill="#F9ECD9" stroke="#F9ECD9"/>
<path d="M317.463 23.1303C320.041 22.4524 322.879 24.0217 323.557 26.5996C324.235 29.1776 322.666 32.0156 320.088 32.6935C317.51 33.3713 314.672 31.8024 313.994 29.2244C313.215 26.4305 314.885 23.8082 317.463 23.1303Z" fill="#F9ECD9" stroke="#F9ECD9"/>
<path d="M317.463 23.1303C320.041 22.4524 322.879 24.0217 323.557 26.5996C324.235 29.1776 322.666 32.0156 320.088 32.6935C317.51 33.3713 314.672 31.8024 313.994 29.2244C313.215 26.4305 314.885 23.8082 317.463 23.1303Z" fill="#F9ECD9" stroke="#F9ECD9"/>
<path d="M301.218 -11.648C303.796 -12.3259 306.634 -10.7568 307.312 -8.17884C307.99 -5.60088 306.421 -2.76298 303.843 -2.08511C301.265 -1.40723 298.427 -2.97611 297.749 -5.55406C297.071 -8.13202 298.641 -10.9702 301.218 -11.648Z" fill="#F9ECD9" stroke="#F9ECD9"/>
<path d="M301.218 -11.648C303.796 -12.3259 306.634 -10.7568 307.312 -8.17884C307.99 -5.60088 306.421 -2.76298 303.843 -2.08511C301.265 -1.40723 298.427 -2.97611 297.749 -5.55406C297.071 -8.13202 298.641 -10.9702 301.218 -11.648Z" fill="#F9ECD9" stroke="#F9ECD9"/>
<path d="M379.014 78.85C381.592 78.1722 384.43 79.7412 385.108 82.3192C385.786 84.8971 384.217 87.7351 381.639 88.413C379.061 89.0909 376.223 87.5219 375.545 84.944C374.867 82.366 376.436 79.5279 379.014 78.85Z" fill="#F9ECD9" stroke="#F9ECD9"/>
<path d="M379.014 78.85C381.592 78.1722 384.43 79.7412 385.108 82.3192C385.786 84.8971 384.217 87.7351 381.639 88.413C379.061 89.0909 376.223 87.5219 375.545 84.944C374.867 82.366 376.436 79.5279 379.014 78.85Z" fill="#F9ECD9" stroke="#F9ECD9"/>
<path d="M362.87 44.2875C365.448 43.6096 368.286 45.1787 368.964 47.7566C369.642 50.3346 368.073 53.1726 365.495 53.8504C362.917 54.5283 360.079 52.9594 359.401 50.3814C358.622 47.5874 360.191 44.7493 362.87 44.2875Z" fill="#F9ECD9" stroke="#F9ECD9"/>
<path d="M362.87 44.2875C365.448 43.6096 368.286 45.1787 368.964 47.7566C369.642 50.3346 368.073 53.1726 365.495 53.8504C362.917 54.5283 360.079 52.9594 359.401 50.3814C358.622 47.5874 360.191 44.7493 362.87 44.2875Z" fill="#F9ECD9" stroke="#F9ECD9"/>
<path d="M346.625 9.5087C349.203 8.83083 352.041 10.4001 352.719 12.9781C353.397 15.556 351.828 18.394 349.25 19.0719C346.672 19.7498 343.834 18.1808 343.156 15.6029C342.377 12.8089 344.047 10.1866 346.625 9.5087Z" fill="#F9ECD9" stroke="#F9ECD9"/>
<path d="M346.625 9.5087C349.203 8.83083 352.041 10.4001 352.719 12.9781C353.397 15.556 351.828 18.394 349.25 19.0719C346.672 19.7498 343.834 18.1808 343.156 15.6029C342.377 12.8089 344.047 10.1866 346.625 9.5087Z" fill="#F9ECD9" stroke="#F9ECD9"/>
<path d="M375.787 -4.11278C378.365 -4.79065 381.203 -3.22148 381.881 -0.643527C382.559 1.93443 380.99 4.77244 378.412 5.45031C375.834 6.12818 372.996 4.55922 372.318 1.98127C371.539 -0.8127 373.209 -3.43491 375.787 -4.11278Z" fill="#F9ECD9" stroke="#F9ECD9"/>
<path d="M375.787 -4.11278C378.365 -4.79065 381.203 -3.22148 381.881 -0.643527C382.559 1.93443 380.99 4.77244 378.412 5.45031C375.834 6.12818 372.996 4.55922 372.318 1.98127C371.539 -0.8127 373.209 -3.43491 375.787 -4.11278Z" fill="#F9ECD9" stroke="#F9ECD9"/>
</g>
<circle opacity="0.0416667" cx="-14" cy="88.9997" r="189.143" stroke="#8DCEE9" stroke-opacity="0.2" stroke-width="5"/>
<circle opacity="0.0833333" cx="-14" cy="88.9999" r="181.787" stroke="#8DCEE9" stroke-opacity="0.2" stroke-width="5"/>
<circle opacity="0.125" cx="-14.0001" cy="88.9996" r="174.43" stroke="#8DCEE9" stroke-opacity="0.2" stroke-width="5"/>
<circle opacity="0.166667" cx="-14.0002" cy="88.9993" r="167.073" stroke="#8DCEE9" stroke-opacity="0.2" stroke-width="5"/>
<circle opacity="0.208333" cx="-14.0001" cy="88.999" r="159.716" stroke="#8DCEE9" stroke-opacity="0.2" stroke-width="5"/>
<circle opacity="0.25" cx="-14" cy="89.0006" r="152.36" stroke="#8DCEE9" stroke-opacity="0.2" stroke-width="5"/>
<circle opacity="0.291667" cx="-14.0002" cy="89.0008" r="145.003" stroke="#8DCEE9" stroke-opacity="0.2" stroke-width="5"/>
<circle opacity="0.333333" cx="-14.0001" cy="89" r="137.646" stroke="#8DCEE9" stroke-opacity="0.2" stroke-width="5"/>
<circle opacity="0.375" cx="-14.0002" cy="88.9997" r="130.289" stroke="#8DCEE9" stroke-opacity="0.2" stroke-width="5"/>
<circle opacity="0.416667" cx="-14.0001" cy="89.0004" r="122.933" stroke="#8DCEE9" stroke-opacity="0.2" stroke-width="5"/>
<circle opacity="0.458333" cx="-14.0001" cy="88.9996" r="115.576" stroke="#8DCEE9" stroke-opacity="0.2" stroke-width="5"/>
<circle opacity="0.5" cx="-14.0001" cy="88.9998" r="108.219" stroke="#8DCEE9" stroke-opacity="0.2" stroke-width="5"/>
<circle opacity="0.541667" cx="-14.0002" cy="88.9995" r="100.862" stroke="#8DCEE9" stroke-opacity="0.2" stroke-width="5"/>
<circle opacity="0.583333" cx="-14.0002" cy="88.9992" r="93.5056" stroke="#8DCEE9" stroke-opacity="0.2" stroke-width="5"/>
<circle opacity="0.625" cx="-14.0002" cy="88.9999" r="86.1488" stroke="#8DCEE9" stroke-opacity="0.2" stroke-width="5"/>
<circle opacity="0.666667" cx="-14.0003" cy="88.9996" r="78.792" stroke="#8DCEE9" stroke-opacity="0.2" stroke-width="5"/>
<circle opacity="0.708333" cx="-14.0003" cy="89.0007" r="71.4353" stroke="#8DCEE9" stroke-opacity="0.2" stroke-width="5"/>
<circle opacity="0.75" cx="-14.0003" cy="88.999" r="64.0786" stroke="#8DCEE9" stroke-opacity="0.2" stroke-width="5"/>
<circle opacity="0.791667" cx="-14.0003" cy="89.0001" r="56.7218" stroke="#8DCEE9" stroke-opacity="0.2" stroke-width="5"/>
<circle opacity="0.833333" cx="-14.0002" cy="89.0008" r="49.3651" stroke="#8DCEE9" stroke-opacity="0.2" stroke-width="5"/>
<circle opacity="0.875" cx="-14.0002" cy="89" r="42.0083" stroke="#8DCEE9" stroke-opacity="0.2" stroke-width="5"/>
<circle opacity="0.916667" cx="-14.0003" cy="88.9997" r="34.6516" stroke="#8DCEE9" stroke-opacity="0.2" stroke-width="5"/>
<circle opacity="0.958333" cx="-14.0002" cy="88.9994" r="27.2948" stroke="#8DCEE9" stroke-opacity="0.2" stroke-width="5"/>
<circle cx="-14.0002" cy="88.9996" r="19.9381" stroke="#8DCEE9" stroke-opacity="0.2" stroke-width="5"/>
</g>
<defs>
<linearGradient id="paint0_linear_298_1556" x1="188" y1="-3.12114e-06" x2="188" y2="812" gradientUnits="userSpaceOnUse">
<stop stop-color="#F9F7F3"/>
<stop offset="0.530745" stop-color="#FCF2E2"/>
<stop offset="1" stop-color="#FFEDD3"/>
</linearGradient>
<clipPath id="clip0_298_1556">
<rect width="375" height="812" fill="white"/>
</clipPath>
<clipPath id="clip1_298_1556">
<rect width="333.784" height="164.508" fill="white" transform="translate(120.533 72.6689) rotate(-25.0372)"/>
</clipPath>
</defs>
</svg>
